<svg xmlns="http://www.w3.org/2000/svg" fill="none" viewBox="0 0 50 19">
  <mask id="a" width="50" height="19" x="0" y="0" maskUnits="userSpaceOnUse" style="mask-type:alpha">
    <path fill="#D9D9D9" d="M0 0h50v19H0z"/>
  </mask>
  <g mask="url(#a)">
    <path fill="#EAE1CC" d="M40 6H9L8 5l1-2h31l1 2-1 1Z"/>
    <path fill="#C9C1B3" d="M40 3h-1v1l-1 2H8h32l1-1-1-2Z"/>
    <path fill="#EAE1CC" d="M39 6H10c-4 0-7 3-7 6v2h43v-2c0-3-3-6-7-6Z"/>
    <path fill="#C9C1B3" d="M39 6h-6c4 0 7 3 7 6v2h6v-2c0-3-3-6-7-6Z"/>
    <path fill="#EAE1CC" d="M47 13H2v6h45v-6Z"/>
    <path fill="#C9C1B3" d="M47 13h-6v6h6v-6Z"/>
    <path fill="#A8A198" d="M4 13h42v-1L4 13ZM9 3h30H9Z"/>
    <path fill="#EAE1CC" d="M39-159H9V5h30v-164Z"/>
    <path fill="#fff" d="M28-158H12V4h16v-162Z" opacity=".2"/>
    <path fill="#fff" d="M20-158h-4V4h4v-162Z" opacity=".4"/>
    <path fill="#DBD2C1" d="M14-152a32 32 0 0 0 0-2h-1v-1l-1 1h-1v2-1h1l1 1V3h1v-155Zm6 0a32 32 0 0 0 0-2h-1l-1-1-1 1-1 2 1-1h1l1 1V3h1v-155Zm5 0a32 32 0 0 0 0-2l-1-1-1 1-1 2v-1h1l1 1V3h1v-155Zm6 0a33 33 0 0 0 0-2h-1l-1-1-1 1v2-1h1l1 1V3h1v-155Zm6 0a32 32 0 0 0-1-2l-1-1-1 1-1 2 1-1h1V3h2v-155Z"/>
  </g>
</svg>
