<svg width="50" height="19" viewBox="0 0 50 19" fill="none" xmlns="http://www.w3.org/2000/svg">
<mask id="mask0_16_3674" style="mask-type:alpha" maskUnits="userSpaceOnUse" x="0" y="0" width="50" height="19">
<rect width="50" height="18.7377" fill="#D9D9D9"/>
</mask>
<g mask="url(#mask0_16_3674)">
<path d="M39.954 6.10061H9.10367C8.33078 6.10061 7.7041 5.49842 7.7041 4.75545C7.7041 4.0126 8.33078 3.4104 9.10367 3.4104H39.954C40.7271 3.4104 41.3536 4.0126 41.3536 4.75545C41.3536 5.49842 40.7271 6.10061 39.954 6.10061Z" fill="#EAE1CC"/>
<path d="M39.7927 3.4104H38.8853C39.0537 3.62502 39.1522 3.88402 39.1522 4.16275C39.1522 4.90572 38.4531 5.50791 37.5906 5.50791H7.97168C8.25231 5.86553 8.72738 6.10073 9.26633 6.10073H39.7926C40.655 6.10073 41.3542 5.49854 41.3542 4.75557C41.3543 4.01247 40.6551 3.4104 39.7927 3.4104Z" fill="#C9C1B3"/>
<path d="M39.4066 6.10071H24.8331H24.2286H9.65515C6.18624 6.10071 3.37402 8.52304 3.37402 11.5113V13.9114H24.2286H24.8331H45.6877V11.5113C45.6879 8.52304 42.8756 6.10071 39.4066 6.10071Z" fill="#EAE1CC"/>
<path d="M39.3077 6.10071H33.3896C36.8587 6.10071 39.6708 8.52304 39.6708 11.5113V13.9114H45.5888V11.5113C45.5887 8.52304 42.7766 6.10071 39.3077 6.10071Z" fill="#C9C1B3"/>
<path d="M46.6459 12.6096H2.41797V18.5977H46.6459V12.6096Z" fill="#EAE1CC"/>
<path d="M46.6446 12.6096H41.3555V18.5977H46.6446V12.6096Z" fill="#C9C1B3"/>
<path d="M4.01758 12.6096H45.6867L45.5866 11.5112L4.01758 12.6096Z" fill="#A8A198"/>
<path d="M8.62305 3.41042H38.5614V2.5332L8.62305 3.41042Z" fill="#A8A198"/>
<path d="M39.0127 -159H9V4.93271H39.0127V-159Z" fill="#EAE1CC"/>
<path opacity="0.2" d="M27.631 -157.506H11.8076V3.65022H27.631V-157.506Z" fill="white"/>
<path opacity="0.43" d="M20.3027 -157.506H16.1611V3.65022H20.3027V-157.506Z" fill="white"/>
<path d="M14.1467 -152.186C14.1401 -152.381 14.1318 -152.576 14.1216 -152.771C14.1057 -153.075 14.0847 -153.382 13.9954 -153.671C13.9061 -153.959 13.7403 -154.232 13.4932 -154.386C13.2208 -154.554 12.8875 -154.559 12.5729 -154.539C12.2225 -154.516 11.8525 -154.459 11.5824 -154.221C11.4575 -154.111 11.3618 -153.968 11.2732 -153.824C10.9132 -153.237 10.6384 -152.5 10.8761 -151.847C10.8911 -152.223 10.9732 -152.612 11.1976 -152.903C11.4221 -153.194 11.7647 -153.589 12.1981 -153.409C12.5784 -153.252 12.9048 -153.069 12.9115 -151.615V2.52538H14.1609V-152.186H14.1467Z" fill="#DBD2C1"/>
<path d="M19.76 -152.186C19.7535 -152.381 19.7451 -152.576 19.735 -152.771C19.719 -153.075 19.6981 -153.382 19.6088 -153.671C19.5193 -153.959 19.3537 -154.232 19.1065 -154.386C18.8342 -154.554 18.5008 -154.559 18.1862 -154.539C17.8359 -154.516 17.4659 -154.459 17.1957 -154.221C17.0708 -154.111 16.9752 -153.968 16.8865 -153.824C16.5264 -153.237 16.2517 -152.5 16.4894 -151.847C16.5044 -152.223 16.5866 -152.612 16.811 -152.903C17.0355 -153.194 17.3781 -153.589 17.8115 -153.409C18.1916 -153.252 18.5182 -153.069 18.5249 -151.615V2.52538H19.7743V-152.186H19.76Z" fill="#DBD2C1"/>
<path d="M25.3773 -152.186C25.3707 -152.381 25.3624 -152.576 25.3522 -152.771C25.3364 -153.075 25.3153 -153.382 25.226 -153.671C25.1367 -153.959 24.9709 -154.232 24.7238 -154.386C24.4515 -154.554 24.1181 -154.559 23.8035 -154.539C23.4531 -154.516 23.083 -154.459 22.8129 -154.221C22.688 -154.111 22.5923 -153.968 22.5037 -153.824C22.1436 -153.237 21.8689 -152.5 22.1065 -151.847C22.1216 -152.223 22.2037 -152.612 22.4281 -152.903C22.6526 -153.194 22.9952 -153.589 23.4287 -153.409C23.8089 -153.252 24.1354 -153.069 24.142 -151.615V2.52538H25.3914V-152.186H25.3773Z" fill="#DBD2C1"/>
<path d="M30.9897 -152.186C30.9831 -152.381 30.9747 -152.576 30.9646 -152.771C30.9487 -153.075 30.9277 -153.382 30.8384 -153.671C30.7491 -153.959 30.5833 -154.232 30.3361 -154.386C30.0638 -154.554 29.7304 -154.559 29.4158 -154.539C29.0655 -154.516 28.6954 -154.459 28.4252 -154.221C28.3003 -154.111 28.2047 -153.968 28.116 -153.824C27.7559 -153.237 27.4811 -152.5 27.7189 -151.847C27.7339 -152.223 27.8161 -152.612 28.0406 -152.903C28.2651 -153.194 28.6077 -153.589 29.0411 -153.409C29.4212 -153.252 29.7478 -153.069 29.7545 -151.615V2.52538H31.0039V-152.186H30.9897Z" fill="#DBD2C1"/>
<path d="M36.6068 -152.186C36.6003 -152.381 36.5919 -152.576 36.5818 -152.771C36.5658 -153.075 36.5449 -153.382 36.4556 -153.671C36.3663 -153.959 36.2005 -154.232 35.9533 -154.386C35.681 -154.554 35.3478 -154.559 35.033 -154.539C34.6827 -154.516 34.3127 -154.459 34.0424 -154.221C33.9175 -154.111 33.8219 -153.968 33.7332 -153.824C33.3731 -153.237 33.0983 -152.5 33.3361 -151.847C33.3511 -152.223 33.4333 -152.612 33.6576 -152.903C33.8822 -153.194 34.2248 -153.589 34.6583 -153.409C35.0384 -153.252 35.365 -153.069 35.3717 -151.615V2.52538H36.6211V-152.186H36.6068Z" fill="#DBD2C1"/>
</g>
</svg>
