<svg width="100" height="9" viewBox="0 0 100 9" fill="none" xmlns="http://www.w3.org/2000/svg">
<mask id="mask0_16_3672" style="mask-type:alpha" maskUnits="userSpaceOnUse" x="0" y="0" width="100" height="9">
<path d="M100 0H0V9H100V0Z" fill="black"/>
</mask>
<g mask="url(#mask0_16_3672)">
<path d="M79.88 -80.9142H20V379.409H79.88V-80.9142Z" fill="#EAE1CC"/>
<path opacity="0.2" d="M57.1735 -76.7184H25.6035V375.809H57.1735V-76.7184Z" fill="white"/>
<path opacity="0.43" d="M42.5521 -76.7184H34.2891V375.809H42.5521V-76.7184Z" fill="white"/>
<path d="M30.2702 -61.7815C30.2571 -62.3291 30.2405 -62.8767 30.2202 -63.4244C30.1884 -64.2766 30.1466 -65.1385 29.9684 -65.9495C29.7902 -66.7602 29.4595 -67.5266 28.9664 -67.9565C28.423 -68.4304 27.7579 -68.4443 27.1302 -68.3872C26.4312 -68.3238 25.693 -68.1632 25.1541 -67.4944C24.9048 -67.1853 24.7141 -66.7852 24.5371 -66.3795C23.8189 -64.7325 23.2707 -62.6632 23.7448 -60.8292C23.7748 -61.885 23.9387 -62.9757 24.3864 -63.7934C24.8343 -64.611 25.5179 -65.7187 26.3825 -65.215C27.1412 -64.7733 27.7925 -64.261 27.8059 -60.1781V372.649H30.2987V-61.7815H30.2702Z" fill="#DBD2C1"/>
<path d="M41.4725 -61.7815C41.4594 -62.3291 41.4428 -62.8767 41.4225 -63.4244C41.3907 -64.2766 41.3489 -65.1385 41.1707 -65.9495C40.9923 -66.7602 40.6618 -67.5266 40.1687 -67.9565C39.6253 -68.4304 38.9602 -68.4443 38.3325 -68.3872C37.6335 -68.3238 36.8953 -68.1632 36.3564 -67.4944C36.1071 -67.1853 35.9164 -66.7852 35.7394 -66.3795C35.021 -64.7325 34.4728 -62.6632 34.9471 -60.8292C34.9771 -61.885 35.141 -62.9757 35.5887 -63.7934C36.0366 -64.611 36.7202 -65.7187 37.5848 -65.215C38.3433 -64.7733 38.9948 -64.261 39.0082 -60.1781V372.649H41.501V-61.7815H41.4725Z" fill="#DBD2C1"/>
<path d="M52.6738 -61.7815C52.6608 -62.3291 52.6441 -62.8767 52.6238 -63.4244C52.5923 -64.2766 52.5502 -65.1385 52.372 -65.9495C52.1938 -66.7602 51.8631 -67.5266 51.37 -67.9565C50.8267 -68.4304 50.1615 -68.4443 49.5338 -68.3872C48.8349 -68.3238 48.0964 -68.1632 47.5574 -67.4944C47.3082 -67.1853 47.1174 -66.7852 46.9405 -66.3795C46.222 -64.7325 45.6741 -62.6632 46.1482 -60.8292C46.1782 -61.885 46.342 -62.9757 46.7897 -63.7934C47.2377 -64.611 47.9213 -65.7187 48.7861 -65.215C49.5446 -64.7733 50.1961 -64.261 50.2092 -60.1781V372.649H52.702V-61.7815H52.6738Z" fill="#DBD2C1"/>
<path d="M63.8761 -61.7815C63.863 -62.3291 63.8464 -62.8767 63.8261 -63.4244C63.7943 -64.2766 63.7525 -65.1385 63.5743 -65.9495C63.3961 -66.7602 63.0653 -67.5266 62.5723 -67.9565C62.0289 -68.4304 61.3638 -68.4443 60.7361 -68.3872C60.0371 -68.3238 59.2987 -68.1632 58.7597 -67.4944C58.5105 -67.1853 58.3197 -66.7852 58.1428 -66.3795C57.4243 -64.7325 56.8761 -62.6632 57.3505 -60.8292C57.3805 -61.885 57.5443 -62.9757 57.9923 -63.7934C58.4402 -64.611 59.1238 -65.7187 59.9884 -65.215C60.7469 -64.7733 61.3984 -64.261 61.4117 -60.1781V372.649H63.9046V-61.7815H63.8761Z" fill="#DBD2C1"/>
<path d="M75.0782 -61.7815C75.0652 -62.3291 75.0485 -62.8767 75.0282 -63.4244C74.9965 -64.2766 74.9547 -65.1385 74.7765 -65.9495C74.5982 -66.7602 74.2675 -67.5266 73.7744 -67.9565C73.2311 -68.4304 72.5662 -68.4443 71.9382 -68.3872C71.2393 -68.3238 70.5011 -68.1632 69.9618 -67.4944C69.7126 -67.1853 69.5218 -66.7852 69.3449 -66.3795C68.6264 -64.7325 68.0782 -62.6632 68.5526 -60.8292C68.5826 -61.885 68.7465 -62.9757 69.1941 -63.7934C69.6421 -64.611 70.3257 -65.7187 71.1906 -65.215C71.949 -64.7733 72.6006 -64.261 72.6139 -60.1781V372.649H75.1067V-61.7815H75.0782Z" fill="#DBD2C1"/>
</g>
</svg>
