<svg width="50" height="9" viewBox="0 0 50 9" fill="none" xmlns="http://www.w3.org/2000/svg">
<g clip-path="url(#clip0_35_35)">
<mask id="mask0_35_35" style="mask-type:alpha" maskUnits="userSpaceOnUse" x="0" y="0" width="50" height="9">
<path d="M50 0H0V9H50V0Z" fill="black"/>
</mask>
<g mask="url(#mask0_35_35)">
<path d="M40 -82H10V378.323H40V-82Z" fill="#EAE1CC"/>
<path opacity="0.2" d="M28.6243 -77.8042H12.8076V374.723H28.6243V-77.8042Z" fill="white"/>
<path opacity="0.43" d="M21.299 -77.8042H17.1592V374.723H21.299V-77.8042Z" fill="white"/>
<path d="M15.1453 -62.8673C15.1387 -63.4149 15.1304 -63.9625 15.1202 -64.5102C15.1043 -65.3624 15.0833 -66.2243 14.9941 -67.0353C14.9048 -67.846 14.7391 -68.6124 14.492 -69.0423C14.2198 -69.5162 13.8866 -69.5301 13.5721 -69.473C13.2219 -69.4096 12.8521 -69.249 12.5821 -68.5802C12.4572 -68.2711 12.3616 -67.871 12.273 -67.4653C11.9131 -65.8183 11.6385 -63.749 11.876 -61.915C11.891 -62.9708 11.9732 -64.0615 12.1975 -64.8792C12.4219 -65.6968 12.7643 -66.8045 13.1975 -66.3008C13.5776 -65.8591 13.9039 -65.3468 13.9106 -61.2639V371.563H15.1595V-62.8673H15.1453Z" fill="#DBD2C1"/>
<path d="M20.7576 -62.8673C20.7511 -63.4149 20.7427 -63.9625 20.7326 -64.5102C20.7166 -65.3624 20.6957 -66.2243 20.6064 -67.0353C20.517 -67.846 20.3515 -68.6124 20.1044 -69.0423C19.8322 -69.5162 19.4989 -69.5301 19.1845 -69.473C18.8343 -69.4096 18.4644 -69.249 18.1944 -68.5802C18.0695 -68.2711 17.974 -67.871 17.8853 -67.4653C17.5254 -65.8183 17.2508 -63.749 17.4884 -61.915C17.5034 -62.9708 17.5855 -64.0615 17.8098 -64.8792C18.0342 -65.6968 18.3767 -66.8045 18.8099 -66.3008C19.1899 -65.8591 19.5163 -65.3468 19.523 -61.2639V371.563H20.7719V-62.8673H20.7576Z" fill="#DBD2C1"/>
<path d="M26.369 -62.8673C26.3625 -63.4149 26.3541 -63.9625 26.344 -64.5102C26.3282 -65.3624 26.3071 -66.2243 26.2178 -67.0353C26.1285 -67.846 25.9628 -68.6124 25.7158 -69.0423C25.4436 -69.5162 25.1103 -69.5301 24.7959 -69.473C24.4457 -69.4096 24.0757 -69.249 23.8057 -68.5802C23.6808 -68.2711 23.5852 -67.871 23.4966 -67.4653C23.1366 -65.8183 22.8621 -63.749 23.0997 -61.915C23.1147 -62.9708 23.1968 -64.0615 23.4211 -64.8792C23.6455 -65.6968 23.988 -66.8045 24.4213 -66.3008C24.8013 -65.8591 25.1277 -65.3468 25.1342 -61.2639V371.563H26.3831V-62.8673H26.369Z" fill="#DBD2C1"/>
<path d="M31.9824 -62.8673C31.9758 -63.4149 31.9675 -63.9625 31.9573 -64.5102C31.9414 -65.3624 31.9204 -66.2243 31.8312 -67.0353C31.7419 -67.846 31.5761 -68.6124 31.3291 -69.0423C31.0569 -69.5162 30.7237 -69.5301 30.4092 -69.473C30.059 -69.4096 29.6891 -69.249 29.419 -68.5802C29.2942 -68.2711 29.1986 -67.871 29.11 -67.4653C28.75 -65.8183 28.4753 -63.749 28.713 -61.915C28.728 -62.9708 28.8101 -64.0615 29.0346 -64.8792C29.259 -65.6968 29.6014 -66.8045 30.0346 -66.3008C30.4146 -65.8591 30.741 -65.3468 30.7477 -61.2639V371.563H31.9966V-62.8673H31.9824Z" fill="#DBD2C1"/>
<path d="M37.5947 -62.8673C37.5881 -63.4149 37.5798 -63.9625 37.5696 -64.5102C37.5537 -65.3624 37.5328 -66.2243 37.4435 -67.0353C37.3542 -67.846 37.1885 -68.6124 36.9415 -69.0423C36.6693 -69.5162 36.3361 -69.5301 36.0215 -69.473C35.6714 -69.4096 35.3015 -69.249 35.0313 -68.5802C34.9065 -68.2711 34.8109 -67.871 34.7223 -67.4653C34.3623 -65.8183 34.0876 -63.749 34.3253 -61.915C34.3404 -62.9708 34.4225 -64.0615 34.6467 -64.8792C34.8712 -65.6968 35.2136 -66.8045 35.647 -66.3008C36.0269 -65.8591 36.3534 -65.3468 36.36 -61.2639V371.563H37.6089V-62.8673H37.5947Z" fill="#DBD2C1"/>
</g>
</g>
<defs>
<clipPath id="clip0_35_35">
<rect width="50" height="9" fill="white"/>
</clipPath>
</defs>
</svg>
