<svg xmlns="http://www.w3.org/2000/svg" fill="none" viewBox="0 0 50 9">
  <g clip-path="url(#a)">
    <mask id="b" width="50" height="9" x="0" y="0" maskUnits="userSpaceOnUse" style="mask-type:alpha">
      <path fill="#000" d="M50 0H0v9h50V0Z"/>
    </mask>
    <g mask="url(#b)">
      <path fill="#EAE1CC" d="M40-82H10v460h30V-82Z"/>
      <path fill="#fff" d="M29-78H13v453h16V-78Z" opacity=".2"/>
      <path fill="#fff" d="M21-78h-4v453h4V-78Z" opacity=".4"/>
      <path fill="#DBD2C1" d="M15-63a250 250 0 0 0-1-6c0-1 0-1 0 0h-1l-1 2v5-3l1-1 1 5v433h1V-63Zm6 0a250 250 0 0 0-1-6h-2v2l-1 5 1-3c0-1 0-2 1-1l1 5v433h1V-63Zm5 0a250 250 0 0 0 0-6h-2l-1 2v5-3l1-1 1 5v433h1V-63Zm6 0a250 250 0 0 0-1-6h-2v7-3l1-1 1 5v433h1V-63Zm6 0a250 250 0 0 0-1-6h-2v2l-1 5 1-3c0-1 0-2 1-1v438h2V-63Z"/>
    </g>
  </g>
  <defs>
    <clipPath id="a">
      <path fill="#fff" d="M0 0h50v9H0z"/>
    </clipPath>
  </defs>
</svg>
