<svg xmlns="http://www.w3.org/2000/svg" fill="none" viewBox="0 0 50 32">
  <g clip-path="url(#a)">
    <mask id="b" width="50" height="32" x="0" y="0" maskUnits="userSpaceOnUse" style="mask-type:alpha">
      <path fill="#fff" d="M50 0H0v32h50V0Z"/>
    </mask>
    <g mask="url(#b)">
      <path fill="#C9C1B3" d="M42 21H9v2h33v-2Zm5-10H3v10h44V11Z"/>
      <path fill="#EAE1CC" d="M28 4H3v2h44V4H28Z"/>
      <path fill="#C9C1B3" d="M28 6H4l2 1v2h38V7l2-1H28Z"/>
      <path fill="#A8A198" d="M4 6h42H4Z"/>
      <path fill="#EAE1CC" d="m15 21 1-1 1-3h8v4H15Zm20 0-2-1v-3h-8v4h10Z"/>
      <path fill="#C9C1B3" d="M19 21v-2l-1-1v3h1Z"/>
      <path fill="#fff" d="M17 20v1a298 298 0 0 0 0-1v-1h1-1v1Z" opacity=".8"/>
      <path fill="#C9C1B3" d="M22 21v-2l-1-1v3h1Z"/>
      <path fill="#fff" d="M20 20v1h1a298 298 0 0 0 0-1v-1c0-1 0 0 0 0l-1 1Z" opacity=".8"/>
      <path fill="#C9C1B3" d="M26 21v-2l-1-1v3h1Z"/>
      <path fill="#fff" d="M24 20v1a315 315 0 0 0 0-1v-1s1 0 0 0c0-1 0 0 0 0v1Z" opacity=".8"/>
      <path fill="#C9C1B3" d="M29 21v-2l-1-1v3h1Z"/>
      <path fill="#fff" d="M27 20v1a315 315 0 0 0 1-1v-1c0-1 0 0 0 0l-1 1Z" opacity=".8"/>
      <path fill="#C9C1B3" d="M33 21v-1l-1-1v-1 3h1Z"/>
      <path fill="#fff" d="M31 20v1a298 298 0 0 0 0-1v-1c0-1 0 0 0 0v1Z" opacity=".8"/>
      <path fill="#A8A198" d="m6 16 1-3h6v-1l-2-1-7 2-1 2-1 1 1 3 2 2 3 1-1-3-1-3Z"/>
      <path fill="#A8A198" d="M8 17c0 1 2 2 3 1l1-3 1 1 1 2v-3c-1-1-2-2-3-1H9c-1 1-2 2-1 3Zm29-1v2l1 2 4 1h-3a9 9 0 0 1-3-2l-1-1 1-3 3-1 1 1h-1l-2 1Z"/>
      <path fill="#A8A198" d="m40 13 4 1c2 1 2 3 1 5l-1 1h3l2-3-1-4-4-3h-5l-2 2 3 1Z"/>
      <path fill="#A8A198" d="M39 11H11v3h28v-3Z"/>
      <path fill="#EAE1CC" d="M25 12V9H6c-1 0-6 2-6 7 1 6 6 7 9 7l6-3v-5l-2-2c-3-1-5 0-6 2v2h2l1-1c-1-1 0-2 1-2l3 2c0 2-1 4-3 5-3 0-7-1-7-5 0-2 2-3 3-4h18Zm0 0V9h19c1 0 6 2 6 7-1 6-6 7-9 7l-6-3v-5l2-2c3-1 5 0 6 2v2l-2 1-1-2c1-1 0-2-1-2l-3 2c0 2 1 4 3 5 3 0 7-1 7-5 0-2-2-3-3-4H25Z"/>
      <path fill="#EAE1CC" d="m11 16-2 2-2-2 2-2 2 2Zm32 0-2 2-2-2 2-2 2 2Z"/>
      <path fill="#fff" d="m34 17 1 1v-1l2-3c-2 0-3 2-3 3Zm4-4-1 1h2v-1h-1Z" opacity=".8"/>
      <path fill="#EAE1CC" d="M40 22H10v156h30V22Z"/>
      <path fill="#fff" d="M29 23H13v154h16V23Z" opacity=".2"/>
      <path fill="#fff" d="M21 23h-4v154h4V23Z" opacity=".4"/>
      <path fill="#DBD2C1" d="M15 28a29 29 0 0 0 0-1l-1-1-1 1h-1v2-1l1-1 1 2v147h1V28Zm6 0a29 29 0 0 0 0-1l-1-1h-1l-1 1-1 2 1-1 1-1 1 2v147h1V28Zm5 0a29 29 0 0 0 0-1v-1h-1l-1 1h-1v2-1l1-1 1 2v147h1V28Zm6 0a29 29 0 0 0 0-1l-1-1h-1l-1 1v2-1l1-1 1 2v147h1V28Zm6 0a29 29 0 0 0-1-1v-1h-1l-1 1-1 2 1-1 1-1v149h2V28Z"/>
      <path fill="#A8A198" d="M10 23h30v7s-3-5-13-5l-17-1v-1Z"/>
    </g>
  </g>
  <defs>
    <clipPath id="a">
      <path fill="#fff" d="M0 0h50v32H0z"/>
    </clipPath>
  </defs>
</svg>
