<svg width="50" height="32" viewBox="0 0 50 32" fill="none" xmlns="http://www.w3.org/2000/svg">
<g clip-path="url(#clip0_16_3675)">
<mask id="mask0_16_3675" style="mask-type:alpha" maskUnits="userSpaceOnUse" x="0" y="0" width="50" height="32">
<path d="M50 0H0V31.8075H50V0Z" fill="white"/>
</mask>
<g mask="url(#mask0_16_3675)">
<path d="M42.1143 20.8052H8.8418V22.9306H42.1143V20.8052Z" fill="#C9C1B3"/>
<path d="M46.571 11.0978H3.09668V21.4646H46.571V11.0978Z" fill="#C9C1B3"/>
<path d="M27.5781 3.75586H22.3996H3.09668V5.7406H22.3996H27.5781H46.8809V3.75586H27.5781Z" fill="#EAE1CC"/>
<path d="M27.5795 5.7406H22.401H4.0918C4.0918 5.7406 5.21693 6.01971 5.77949 6.60562C6.34205 7.19166 6.29513 7.63814 6.29513 7.63814H6.30564V9.09741H22.401H27.5793H43.6747V7.63814H43.6851C43.6851 7.63814 43.6382 7.19166 44.2009 6.60562C44.7634 6.01959 45.8886 5.7406 45.8886 5.7406H27.5795Z" fill="#C9C1B3"/>
<path d="M4.0918 5.7406H45.8886L44.3766 6.44753L4.0918 5.7406Z" fill="#A8A198"/>
<path d="M14.8584 21.4646C14.8584 21.4646 16.0646 20.9157 16.484 19.8114C16.9035 18.7072 16.7987 17.3629 16.7987 17.3629H24.9776L24.9905 21.4644H14.8584V21.4646Z" fill="#EAE1CC"/>
<path d="M35.1347 21.4331C35.1347 21.4331 33.9252 20.8905 33.4988 19.7885C33.0724 18.6865 33.169 17.3417 33.169 17.3417L24.9902 17.3843L25.0029 21.4858L35.1347 21.4331Z" fill="#EAE1CC"/>
<path d="M18.9901 21.4646C19.0687 20.8861 19.0806 20.3 19.0234 19.7194C18.9939 19.4202 18.9437 19.1144 18.7811 18.8534C18.6186 18.5925 18.3214 18.3833 17.9934 18.387C17.9705 19.4203 18.0212 20.436 17.9395 21.4647L18.9901 21.4646Z" fill="#C9C1B3"/>
<path opacity="0.77" d="M16.9591 19.5659C16.8528 20.0574 16.8548 20.5685 16.9651 21.0594C16.9723 21.0914 16.9815 21.1256 17.0093 21.1458C17.0341 21.1638 17.0679 21.1662 17.0996 21.1679C17.1991 21.1732 17.2986 21.1785 17.3981 21.1837C17.3661 21.182 17.3596 20.2383 17.3605 20.1571C17.3642 19.8005 17.3925 19.4427 17.4748 19.0935C17.4938 19.0134 17.6628 18.6585 17.6307 18.6008C17.5689 18.4891 17.4387 18.6188 17.3756 18.6827C17.1416 18.9195 17.0254 19.2593 16.9591 19.5659Z" fill="white"/>
<path d="M22.416 21.4646C22.4946 20.8861 22.5065 20.3 22.4493 19.7194C22.42 19.4202 22.3695 19.1144 22.2069 18.8534C22.0445 18.5925 21.7473 18.3833 21.4192 18.387C21.3963 19.4203 21.447 20.436 21.3652 21.4647L22.416 21.4646Z" fill="#C9C1B3"/>
<path opacity="0.77" d="M20.3839 19.5659C20.2776 20.0574 20.2797 20.5685 20.3899 21.0594C20.3971 21.0914 20.4063 21.1256 20.4341 21.1458C20.459 21.1638 20.4929 21.1662 20.5244 21.1679C20.6239 21.1732 20.7234 21.1785 20.8229 21.1837C20.7909 21.182 20.7844 20.2383 20.7853 20.1571C20.789 19.8005 20.8172 19.4427 20.8997 19.0935C20.9185 19.0134 21.0876 18.6585 21.0555 18.6008C20.9936 18.4891 20.8635 18.6188 20.8003 18.6827C20.5664 18.9195 20.4502 19.2593 20.3839 19.5659Z" fill="white"/>
<path d="M25.8398 21.4646C25.9184 20.8861 25.9303 20.3 25.8732 19.7194C25.8438 19.4202 25.7933 19.1144 25.6307 18.8534C25.4682 18.5925 25.1711 18.3833 24.843 18.387C24.8201 19.4203 24.8709 20.436 24.7891 21.4647L25.8398 21.4646Z" fill="#C9C1B3"/>
<path opacity="0.77" d="M23.8106 19.5659C23.7044 20.0574 23.7064 20.5685 23.8167 21.0594C23.8238 21.0914 23.8331 21.1256 23.861 21.1458C23.8859 21.1638 23.9196 21.1662 23.9513 21.1679C24.0508 21.1732 24.1503 21.1785 24.2497 21.1837C24.2178 21.182 24.2113 20.2383 24.2122 20.1571C24.2159 19.8005 24.2442 19.4427 24.3265 19.0935C24.3455 19.0134 24.5145 18.6585 24.4824 18.6008C24.4206 18.4891 24.2904 18.6188 24.2273 18.6827C23.9932 18.9195 23.8768 19.2593 23.8106 19.5659Z" fill="white"/>
<path d="M29.2646 21.4646C29.3432 20.8861 29.3551 20.3 29.298 19.7194C29.2686 19.4202 29.2181 19.1144 29.0557 18.8534C28.8931 18.5925 28.5959 18.3833 28.2678 18.387C28.2448 19.4203 28.2957 20.436 28.2139 21.4647L29.2646 21.4646Z" fill="#C9C1B3"/>
<path opacity="0.77" d="M27.2334 19.5659C27.1272 20.0574 27.1293 20.5685 27.2395 21.0594C27.2466 21.0914 27.2559 21.1256 27.2838 21.1458C27.3086 21.1638 27.3424 21.1662 27.3741 21.1679C27.4736 21.1732 27.5731 21.1785 27.6725 21.1837C27.6406 21.182 27.6341 20.2383 27.635 20.1571C27.6387 19.8005 27.667 19.4427 27.7493 19.0935C27.7682 19.0134 27.9373 18.6585 27.9052 18.6008C27.8433 18.4891 27.7132 18.6188 27.6501 18.6827C27.4159 18.9195 27.2996 19.2593 27.2334 19.5659Z" fill="white"/>
<path d="M32.6886 21.4646C32.7672 20.8861 32.779 20.3 32.7219 19.7194C32.6926 19.4202 32.6421 19.1144 32.4795 18.8534C32.3169 18.5925 32.0199 18.3833 31.6918 18.387C31.6688 19.4203 31.7196 20.436 31.6377 21.4647L32.6886 21.4646Z" fill="#C9C1B3"/>
<path opacity="0.77" d="M30.6583 19.5659C30.552 20.0574 30.5541 20.5685 30.6643 21.0594C30.6715 21.0914 30.6807 21.1256 30.7086 21.1458C30.7334 21.1638 30.7673 21.1662 30.7988 21.1679C30.8983 21.1732 30.9978 21.1785 31.0973 21.1837C31.0653 21.182 31.0588 20.2383 31.0596 20.1571C31.0633 19.8005 31.0916 19.4427 31.1739 19.0935C31.1928 19.0134 31.3619 18.6585 31.3298 18.6008C31.2679 18.4891 31.1378 18.6188 31.0746 18.6827C30.8407 18.9195 30.7244 19.2593 30.6583 19.5659Z" fill="white"/>
<path d="M5.56841 16.0813C5.62148 14.94 6.24379 13.7783 7.34213 13.2362C8.04238 12.8905 8.86136 12.8194 9.65597 12.7844C10.879 12.7307 12.1059 12.7465 13.3269 12.8321C13.3371 12.4321 13.0603 12.0601 12.6995 11.8344C12.3386 11.6087 11.9031 11.5076 11.4727 11.438C8.90264 11.023 6.15328 11.6466 4.09187 13.1119C3.51507 13.5219 2.97854 14.0098 2.68584 14.6224C2.41277 15.1937 2.3702 15.8351 2.39956 16.4583C2.44148 17.3515 2.62866 18.2525 3.08366 19.0436C3.58212 19.9105 4.39302 20.5954 5.32751 21.0603C5.74648 21.2687 7.6593 22.1333 7.98084 21.5961C8.3011 21.0611 6.84648 19.7762 6.60007 19.3863C5.97148 18.3928 5.5143 17.2435 5.56841 16.0813Z" fill="#A8A198"/>
<path d="M7.78652 17.3495C8.37985 18.2556 9.83101 18.5566 10.8162 18.0065C11.8015 17.4564 12.1819 16.1765 11.6766 15.2267C12.3173 15.2204 12.9162 15.5549 13.3398 15.9949C13.7633 16.435 14.0393 16.9748 14.3097 17.5065C14.4059 16.5239 14.1964 15.4894 13.5586 14.6942C12.9207 13.8991 11.8138 13.3904 10.7515 13.5557C10.1421 13.6505 9.59306 13.949 9.09806 14.288C8.18126 14.9162 7.08742 16.2821 7.78652 17.3495Z" fill="#A8A198"/>
<path d="M37.3883 15.5324C36.8967 16.364 36.9833 17.3986 37.3567 18.2803C37.5813 18.8109 37.9067 19.3104 38.3469 19.7121C39.1851 20.477 40.3829 20.8351 41.5624 20.9241C40.8526 21.2582 40.0054 21.2822 39.2258 21.1253C38.4461 20.9685 37.7203 20.6435 37.0142 20.3027C36.5404 20.0739 36.0578 19.8264 35.7283 19.4398C35.2985 18.9353 35.1883 18.2629 35.1794 17.6232C35.1683 16.8383 35.2963 16.0291 35.7349 15.3546C36.4183 14.3034 37.7849 13.732 39.1203 13.6883C39.784 13.6665 41.164 14.5654 40.1085 14.6214C39.5673 14.65 39.2176 14.3552 38.6095 14.5631C38.0976 14.7381 37.6487 15.0924 37.3883 15.5324Z" fill="#A8A198"/>
<path d="M39.7627 13.2054C40.2309 13.3846 42.5068 13.5245 43.6871 14.1763C45.7907 15.3379 45.8782 17.2985 44.9798 18.5569C44.4162 19.3464 44.3737 19.7113 43.5917 20.3252C44.583 20.6871 45.6841 20.1533 46.5264 19.5534C47.4254 18.9131 48.262 18.1467 48.6931 17.1818C49.3211 15.7765 48.9736 14.0967 48.0027 12.8657C47.0319 11.6347 45.5075 10.8292 43.9003 10.4546C42.2931 10.0799 40.6023 10.1073 38.9577 10.3032C38.1716 10.3968 36.8599 10.7567 37.1091 11.7305C37.333 12.6042 38.9995 12.9131 39.7627 13.2054Z" fill="#A8A198"/>
<path d="M39.4728 11.3121H10.9492V14.1762H39.4728V11.3121Z" fill="#A8A198"/>
<path d="M24.9899 12.4247V9.07666H6.25257V9.14661C4.79488 9.34755 0.00347202 11.1314 0.267318 15.5214C0.661421 22.0764 6.14655 22.7079 8.6427 22.8884C10.8516 23.048 13.3689 22.031 14.719 20.4227C16.0691 18.8143 16.2299 16.6941 15.2117 14.7397C14.8675 14.0788 13.7518 13.0742 12.5513 12.8453C10.3958 12.4344 8.14116 13.1891 7.42219 15.0941C7.23629 15.5866 7.18219 16.1405 7.39552 16.6237C7.60886 17.1068 8.13014 17.4939 8.69911 17.4803C9.26809 17.4666 9.80129 16.9696 9.70822 16.4557C9.68591 16.3324 9.63245 16.2159 9.59873 16.0949C9.34411 15.183 10.3852 14.2701 11.4112 14.3283C12.4372 14.3865 13.2804 15.1743 13.6177 16.0633C14.3214 17.9177 12.9711 20.0934 10.8763 20.5129C7.72322 21.1444 3.89488 19.753 3.78181 16.0258C3.71616 13.8608 5.69104 12.5147 7.45578 12.4305L8.83296 12.4249H24.9899V12.4247Z" fill="#EAE1CC"/>
<path d="M24.9775 12.4505V9.10254H43.7148V9.17249C45.1725 9.37343 49.964 11.1572 49.7 15.5473C49.3057 22.1023 43.8207 22.7338 41.3245 22.9142C39.1157 23.0738 36.5983 22.0568 35.2482 20.4485C33.8982 18.8402 33.7374 16.7199 34.7555 14.7655C35.0998 14.1045 36.2154 13.1 37.4159 12.8711C39.5714 12.4601 41.826 13.2147 42.545 15.1199C42.7309 15.6124 42.785 16.1663 42.5716 16.6494C42.3583 17.1325 41.8372 17.5197 41.2682 17.5059C40.6992 17.4922 40.166 16.9953 40.2591 16.4813C40.2814 16.3581 40.3347 16.2416 40.3686 16.1205C40.6231 15.2086 39.5822 14.2957 38.5561 14.3539C37.5301 14.4123 36.6869 15.2 36.3496 16.089C35.6459 17.9434 36.9963 20.1192 39.0911 20.5387C42.2442 21.1701 46.0725 19.7787 46.1855 16.0515C46.2511 13.8866 44.2763 12.5403 42.5115 12.4562L41.1343 12.4505H24.9775Z" fill="#EAE1CC"/>
<path d="M11.3035 16.0256C11.3035 17.0469 10.3991 17.8747 9.28354 17.8747C8.16803 17.8747 7.26367 17.0468 7.26367 16.0256C7.26367 15.0042 8.16803 14.1763 9.28354 14.1763C10.3991 14.1763 11.3035 15.0042 11.3035 16.0256Z" fill="#EAE1CC"/>
<path d="M42.7215 16.2048C42.7215 17.226 41.8172 18.0539 40.7016 18.0539C39.586 18.0539 38.6816 17.226 38.6816 16.2048C38.6816 15.1834 39.586 14.3555 40.7016 14.3555C41.8172 14.3555 42.7215 15.1834 42.7215 16.2048Z" fill="#EAE1CC"/>
<path opacity="0.77" d="M34.4594 17.1857C34.4797 17.5999 34.6103 18.061 35.0033 18.2671C35.0461 18.2895 35.0955 18.3089 35.1438 18.2995C35.2274 18.2833 35.2639 18.194 35.2802 18.1171C35.3621 17.731 35.2998 17.3331 35.3069 16.9398C35.326 15.8529 35.9092 14.7857 36.8479 14.1199C36.9523 14.0459 37.068 13.9055 36.9694 13.8251C36.9398 13.8009 36.8984 13.7932 36.8589 13.7888C35.2401 13.6114 34.406 16.0936 34.4594 17.1857Z" fill="white"/>
<path opacity="0.77" d="M37.6823 13.3229C37.5704 13.361 37.4578 13.4185 37.4021 13.5153C37.3463 13.6121 37.3739 13.7543 37.4835 13.7977C37.5419 13.8209 37.6087 13.8124 37.6717 13.8035C38.0532 13.7496 38.4346 13.6956 38.8162 13.6416C38.8759 13.6332 38.9386 13.6237 38.9863 13.5896C39.1107 13.5013 39.0462 13.3011 38.9081 13.2319C38.77 13.1626 38.601 13.1835 38.4455 13.2063C38.1395 13.2513 37.8335 13.2962 37.5273 13.341L37.6823 13.3229Z" fill="white"/>
<path d="M40 22H10V178.082H40V22Z" fill="#EAE1CC"/>
<path opacity="0.2" d="M28.6233 23.4227H12.8066V176.862H28.6233V23.4227Z" fill="white"/>
<path opacity="0.43" d="M21.298 23.4227H17.1582V176.862H21.298V23.4227Z" fill="white"/>
<path d="M15.1452 28.4874C15.1387 28.3017 15.1303 28.116 15.1202 27.9303C15.1043 27.6414 15.0833 27.3491 14.994 27.0741C14.9048 26.7992 14.739 26.5394 14.492 26.3936C14.2198 26.2329 13.8866 26.2282 13.5721 26.2476C13.2219 26.2691 12.8521 26.3235 12.582 26.5503C12.4572 26.6551 12.3616 26.7908 12.273 26.9283C11.9131 27.4868 11.6385 28.1884 11.876 28.8103C11.891 28.4523 11.9731 28.0824 12.1974 27.8052C12.4219 27.528 12.7643 27.1524 13.1975 27.3232C13.5776 27.4729 13.9039 27.6466 13.9106 29.031V175.79H15.1595V28.4874H15.1452Z" fill="#DBD2C1"/>
<path d="M20.7576 28.4874C20.7511 28.3017 20.7427 28.116 20.7326 27.9303C20.7166 27.6414 20.6957 27.3491 20.6064 27.0741C20.517 26.7992 20.3514 26.5394 20.1044 26.3936C19.8322 26.2329 19.499 26.2282 19.1845 26.2476C18.8343 26.2691 18.4644 26.3235 18.1944 26.5503C18.0696 26.6551 17.974 26.7908 17.8853 26.9283C17.5254 27.4868 17.2507 28.1884 17.4884 28.8103C17.5034 28.4523 17.5855 28.0824 17.8098 27.8052C18.0342 27.528 18.3767 27.1524 18.8099 27.3232C19.1899 27.4729 19.5163 27.6466 19.523 29.031V175.79H20.7719V28.4874H20.7576Z" fill="#DBD2C1"/>
<path d="M26.369 28.4874C26.3625 28.3017 26.3541 28.116 26.344 27.9303C26.3282 27.6414 26.3071 27.3491 26.2178 27.0741C26.1285 26.7992 25.9628 26.5394 25.7158 26.3936C25.4436 26.2329 25.1104 26.2282 24.7959 26.2476C24.4457 26.2691 24.0757 26.3235 23.8057 26.5503C23.6808 26.6551 23.5853 26.7908 23.4966 26.9283C23.1367 27.4868 22.8621 28.1884 23.0997 28.8103C23.1147 28.4523 23.1968 28.0824 23.4211 27.8052C23.6455 27.528 23.988 27.1524 24.4213 27.3232C24.8013 27.4729 25.1277 27.6466 25.1343 29.031V175.79H26.3832V28.4874H26.369Z" fill="#DBD2C1"/>
<path d="M31.9824 28.4874C31.9758 28.3017 31.9675 28.116 31.9573 27.9303C31.9414 27.6414 31.9204 27.3491 31.8312 27.0741C31.7419 26.7992 31.5762 26.5394 31.3291 26.3936C31.0569 26.2329 30.7237 26.2282 30.4092 26.2476C30.059 26.2691 29.6891 26.3235 29.419 26.5503C29.2942 26.6551 29.1986 26.7908 29.11 26.9283C28.75 27.4868 28.4753 28.1884 28.713 28.8103C28.728 28.4523 28.8101 28.0824 29.0345 27.8052C29.259 27.528 29.6014 27.1524 30.0346 27.3232C30.4146 27.4729 30.741 27.6466 30.7477 29.031V175.79H31.9966V28.4874H31.9824Z" fill="#DBD2C1"/>
<path d="M37.5947 28.4874C37.5881 28.3017 37.5798 28.116 37.5696 27.9303C37.5537 27.6414 37.5328 27.3491 37.4435 27.0741C37.3542 26.7992 37.1885 26.5394 36.9414 26.3936C36.6692 26.2329 36.3361 26.2282 36.0215 26.2476C35.6713 26.2691 35.3015 26.3235 35.0313 26.5503C34.9065 26.6551 34.8109 26.7908 34.7223 26.9283C34.3623 27.4868 34.0877 28.1884 34.3253 28.8103C34.3403 28.4523 34.4224 28.0824 34.6467 27.8052C34.8711 27.528 35.2136 27.1524 35.6469 27.3232C36.0269 27.4729 36.3533 27.6466 36.36 29.031V175.79H37.6089V28.4874H37.5947Z" fill="#DBD2C1"/>
<path d="M10 23.4227H40V30.3822C40 30.3822 37.3029 25.436 27.3289 24.7216C17.3547 24.0071 10 24.227 10 24.227V23.4227Z" fill="#A8A198"/>
</g>
</g>
<defs>
<clipPath id="clip0_16_3675">
<rect width="50" height="31.8075" fill="white"/>
</clipPath>
</defs>
</svg>
