<svg width="285" height="54" viewBox="0 0 285 54" fill="none" xmlns="http://www.w3.org/2000/svg">
<path d="M0.14 47.76L16.24 1.56L33.88 53.85L11.27 42.3L12.67 37.89L24.57 43.77L16.59 17.03L4.9 49.86L0.14 47.76ZM34.9388 40.69V0.859998L56.4288 14.72L49.0088 24.87L58.6688 34.11L37.9488 49.44L35.8488 45.31L51.5988 34.46L42.4988 25.36L48.9388 16.4L39.8388 9.96V37.54L34.9388 40.69ZM61.9992 2.61L68.2292 1.07L69.2092 49.02L63.4692 50L61.9992 2.61ZM75.7559 2.47L81.7759 1.35L81.0759 24.03L99.7659 0.509999L103.196 4.22L88.6359 24.66L103.406 47.76L98.6459 50L81.0059 24.03V49.86L75.7559 50.63V2.47ZM107.055 0.999997L130.085 16.82L122.175 30.05L132.675 48.11L129.035 50.49L115.175 29.56L122.175 18.29L112.445 11.78L113.425 50L107.965 50.49L107.055 0.999997ZM147.212 1.35H147.282L163.312 24.87L148.122 49.86L131.322 25.15L147.212 1.35ZM147.072 11.01L137.692 25.43L147.912 39.57L156.382 24.87L147.072 11.01ZM167.084 50L166.944 0.299997L190.814 18.08L175.274 36.7L174.854 28.16L183.184 18.92L172.614 11.08L172.194 49.65L167.084 50ZM206.753 1.35H206.823L222.853 24.87L207.663 49.86L190.863 25.15L206.753 1.35ZM206.613 11.01L197.233 25.43L207.453 39.57L215.923 24.87L206.613 11.01ZM225.995 2.82V2.75L232.085 1.14L232.855 44.26L249.305 44.05L246.295 49.51L227.395 50L225.995 2.82ZM251.765 2.61L257.995 1.07L258.975 49.02L253.235 50L251.765 2.61ZM275.741 1.21L279.031 5.34L269.581 16.96L284.351 34.53L271.541 50.7L267.621 46.43L276.651 34.32L262.231 16.96L275.741 1.21Z" fill="white"/>
</svg>
